<svg xmlns="http://www.w3.org/2000/svg" width="512" height="512" fill="#19242f" viewBox="0 0 512 512">
  <path d="M452.11 161.621C440.263 137.356 415.565 122 388.542 122a21.766 21.766 0 0 0-15.38 6.364L271.88 229.553c-8.493 8.484-22.268 8.484-30.76 0L139.838 128.364a21.759 21.759 0 0 0-15.38-6.364c-27.023 0-51.721 15.356-63.568 39.621C46.87 190.342 39 222.618 39 256.724c0 29.915 6.051 58.419 17.004 84.355C68.59 370.892 98.15 390 130.534 390h17.216c12.011 0 21.75-9.73 21.75-21.73v-44.42c0-7.746 9.372-11.623 14.853-6.147l56.767 56.714c8.492 8.485 22.267 8.485 30.76 0l56.767-56.714c5.481-5.476 14.853-1.599 14.853 6.147v44.42c0 12 9.739 21.73 21.75 21.73h17.216c32.384 0 61.944-19.108 74.53-48.921C467.949 315.143 474 286.639 474 256.724c0-34.106-7.869-66.382-21.89-95.103Z"/>
  <path d="M241.12 168.101c8.493 8.484 22.268 8.484 30.76 0l31.291-31.262c5.481-5.476 1.6-14.839-6.153-14.839h-81.036c-7.752 0-11.634 9.363-6.153 14.839l31.291 31.262Z"/>
  <style>
    @media (prefers-color-scheme: dark) {
      svg { fill: #fefcfb; }
    }
  </style>
</svg>
